# xmcd
#
# Track frame offsets:
#	150
#	11159
#	28824
#	46339
#	56898
#	66444
#	75390
#	91705
#	103501
#	113310
#	129850
#	145790
#	160192
#
# Disc length: 2338 seconds
#
# Revision: 0
# Processed by: cddbd v1.5.1PL0 Copyright (c) Steve Scherf et al.
# Submitted via: dBpowerAMP V4.0
#
DISCID=9d09200d
DTITLE=Snooks Eaglin - Portraits In Blues Vol. 1
DYEAR=1964
DGENRE=Blues
TTITLE0=Country Boy
TTITLE1=Fly Right Back Baby
TTITLE2=Well I Had My Fun
TTITLE3=Bottle It Up And Go
TTITLE4=Mama Don't You Tear My Clothes
TTITLE5=I Don't Know
TTITLE6=Mean Old World
TTITLE7=Alberta
TTITLE8=That's Allright
TTITLE9=Malaguena
TTITLE10=When They Ring Them Golden Bells
TTITLE11=Went Out Walkin'
TTITLE12=Remember Me
EXTD=
EXTT0=
EXTT1=
EXTT2=
EXTT3=
EXTT4=
EXTT5=
EXTT6=
EXTT7=
EXTT8=
EXTT9=
EXTT10=
EXTT11=
EXTT12=
PLAYORDER=
